<?xml version="1.0" encoding="utf-8"?>
<svg xmlns="http://www.w3.org/2000/svg" viewBox="2.87 3.104 18 18" width="600px" height="600px" xmlns:bx="https://boxy-svg.com"><defs><linearGradient id="color-0" bx:pinned="true" gradientUnits="userSpaceOnUse"><stop style="stop-color: rgb(184, 169, 207);"/></linearGradient></defs><path d="M 11.87 8.104 L 11.87 21.104 M 11.87 8.104 L 7.37 8.104 C 6.707 8.104 6.071 7.841 5.602 7.372 C 5.133 6.903 4.87 6.267 4.87 5.604 C 4.87 4.941 5.133 4.305 5.602 3.836 C 6.071 3.367 6.707 3.104 7.37 3.104 C 10.87 3.104 11.87 8.104 11.87 8.104 Z M 11.87 8.104 L 16.37 8.104 C 17.033 8.104 17.669 7.841 18.138 7.372 C 18.606 6.903 18.87 6.267 18.87 5.604 C 18.87 4.941 18.606 4.305 18.138 3.836 C 17.669 3.367 17.033 3.104 16.37 3.104 C 12.87 3.104 11.87 8.104 11.87 8.104 Z M 2.87 14.104 L 20.87 14.104 M 6.07 21.104 L 17.67 21.104 C 18.79 21.104 19.35 21.104 19.778 20.886 C 20.154 20.694 20.46 20.388 20.652 20.012 C 20.87 19.584 20.87 19.024 20.87 17.904 L 20.87 11.304 C 20.87 10.184 20.87 9.624 20.652 9.196 C 20.46 8.82 20.154 8.514 19.778 8.322 C 19.35 8.104 18.79 8.104 17.67 8.104 L 6.07 8.104 C 4.95 8.104 4.39 8.104 3.962 8.322 C 3.586 8.514 3.28 8.82 3.088 9.196 C 2.87 9.624 2.87 10.184 2.87 11.304 L 2.87 17.904 C 2.87 19.024 2.87 19.584 3.088 20.012 C 3.28 20.388 3.586 20.694 3.962 20.886 C 4.39 21.104 4.95 21.104 6.07 21.104 Z" stroke-width="2" stroke-linecap="round" stroke-linejoin="round" style="fill-rule: evenodd; stroke: url(&quot;#color-0&quot;);" id="object-0"/></svg>