<svg xmlns="http://www.w3.org/2000/svg" xmlns:xlink="http://www.w3.org/1999/xlink" width="800" zoomAndPan="magnify" viewBox="0 0 600 749.999995" height="1000" preserveAspectRatio="xMidYMid meet" version="1.0"><defs><g/><clipPath id="3a938182f5"><path d="M 12.5625 32.90625 L 587.0625 32.90625 L 587.0625 607.40625 L 12.5625 607.40625 Z M 12.5625 32.90625 " clip-rule="nonzero"/></clipPath><clipPath id="ae7e94f6ec"><rect x="0" width="342" y="0" height="137"/></clipPath></defs><g clip-path="url(#3a938182f5)"><path fill="#000000" d="M 181.171875 36.417969 C 134.410156 38.535156 93.878906 49.964844 61.152344 82.546875 C 28.3125 115.308594 17.019531 156 14.90625 202.273438 C 13.589844 231.152344 5.902344 449.351562 28.195312 506.574219 C 43.230469 545.175781 72.84375 574.871094 111.800781 589.949219 C 129.976562 597.015625 150.730469 601.8125 181.171875 603.199219 C 435.695312 614.71875 530.046875 608.445312 569.835938 506.574219 C 576.894531 488.441406 581.753906 467.710938 583.097656 437.347656 C 594.730469 182.171875 581.210938 126.855469 536.851562 82.546875 C 501.664062 47.453125 460.277344 23.566406 181.171875 36.417969 M 183.511719 551.882812 C 155.644531 550.632812 140.527344 545.976562 130.4375 542.078125 C 105.054688 532.214844 85.992188 513.226562 76.1875 487.992188 C 59.207031 444.511719 64.839844 237.996094 66.355469 204.585938 C 67.839844 171.847656 74.472656 141.945312 97.566406 118.847656 C 126.148438 90.332031 163.078125 76.363281 414.515625 87.707031 C 447.328125 89.195312 477.3125 95.8125 500.464844 118.847656 C 529.046875 147.359375 543.226562 184.570312 531.675781 435.046875 C 530.417969 462.84375 525.761719 477.921875 521.84375 487.992188 C 495.976562 554.28125 436.46875 563.496094 183.511719 551.882812 M 417.289062 167.601562 C 417.289062 186.480469 432.636719 201.824219 451.589844 201.824219 C 470.539062 201.824219 485.917969 186.480469 485.917969 167.601562 C 485.917969 148.734375 470.539062 133.390625 451.589844 133.390625 C 432.636719 133.390625 417.289062 148.734375 417.289062 167.601562 M 152.246094 319.792969 C 152.246094 400.652344 217.957031 466.210938 299.015625 466.210938 C 380.074219 466.210938 445.789062 400.652344 445.789062 319.792969 C 445.789062 238.9375 380.074219 173.421875 299.015625 173.421875 C 217.957031 173.421875 152.246094 238.9375 152.246094 319.792969 M 203.75 319.792969 C 203.75 267.335938 246.394531 224.769531 299.015625 224.769531 C 351.636719 224.769531 394.28125 267.335938 394.28125 319.792969 C 394.28125 372.292969 351.636719 414.863281 299.015625 414.863281 C 246.394531 414.863281 203.75 372.292969 203.75 319.792969 " fill-opacity="1" fill-rule="evenodd"/></g><g transform="matrix(1, 0, 0, 1, 129, 604)"><g clip-path="url(#ae7e94f6ec)"><g fill="#000000" fill-opacity="1"><g transform="translate(0.870084, 109.512175)"><g><path d="M 30.5 -81.09375 L 70.5 -30.796875 L 70.5 -65.65625 C 70.5 -70.519531 69.800781 -73.8125 68.40625 -75.53125 C 66.5 -77.84375 63.289062 -78.957031 58.78125 -78.875 L 58.78125 -81.09375 L 85.578125 -81.09375 L 85.578125 -78.875 C 82.148438 -78.4375 79.847656 -77.867188 78.671875 -77.171875 C 77.492188 -76.472656 76.570312 -75.335938 75.90625 -73.765625 C 75.25 -72.191406 74.921875 -69.488281 74.921875 -65.65625 L 74.921875 1.859375 L 72.890625 1.859375 L 18.0625 -65.65625 L 18.0625 -14.109375 C 18.0625 -9.441406 19.125 -6.289062 21.25 -4.65625 C 23.382812 -3.03125 25.828125 -2.21875 28.578125 -2.21875 L 30.5 -2.21875 L 30.5 0 L 1.734375 0 L 1.734375 -2.21875 C 6.203125 -2.25 9.3125 -3.160156 11.0625 -4.953125 C 12.8125 -6.753906 13.6875 -9.804688 13.6875 -14.109375 L 13.6875 -71.34375 L 11.953125 -73.5 C 10.242188 -75.644531 8.726562 -77.054688 7.40625 -77.734375 C 6.09375 -78.410156 4.203125 -78.789062 1.734375 -78.875 L 1.734375 -81.09375 Z M 30.5 -81.09375 "/></g></g></g><g fill="#000000" fill-opacity="1"><g transform="translate(89.309538, 109.512175)"><g><path d="M 34.984375 -8.25 C 28.160156 -2.226562 22.039062 0.78125 16.625 0.78125 C 13.4375 0.78125 10.785156 -0.265625 8.671875 -2.359375 C 6.554688 -4.453125 5.5 -7.070312 5.5 -10.21875 C 5.5 -14.488281 7.332031 -18.328125 11 -21.734375 C 14.664062 -25.140625 22.660156 -29.675781 34.984375 -35.34375 L 34.984375 -40.96875 C 34.984375 -45.1875 34.753906 -47.84375 34.296875 -48.9375 C 33.835938 -50.039062 32.96875 -51 31.6875 -51.8125 C 30.414062 -52.632812 28.984375 -53.046875 27.390625 -53.046875 C 24.796875 -53.046875 22.660156 -52.46875 20.984375 -51.3125 C 19.953125 -50.59375 19.4375 -49.753906 19.4375 -48.796875 C 19.4375 -47.960938 19.992188 -46.925781 21.109375 -45.6875 C 22.617188 -43.96875 23.375 -42.3125 23.375 -40.71875 C 23.375 -38.769531 22.644531 -37.109375 21.1875 -35.734375 C 19.738281 -34.359375 17.835938 -33.671875 15.484375 -33.671875 C 12.972656 -33.671875 10.867188 -34.425781 9.171875 -35.9375 C 7.484375 -37.457031 6.640625 -39.234375 6.640625 -41.265625 C 6.640625 -44.128906 7.773438 -46.867188 10.046875 -49.484375 C 12.316406 -52.097656 15.484375 -54.101562 19.546875 -55.5 C 23.617188 -56.894531 27.847656 -57.59375 32.234375 -57.59375 C 37.535156 -57.59375 41.726562 -56.460938 44.8125 -54.203125 C 47.90625 -51.953125 49.910156 -49.507812 50.828125 -46.875 C 51.390625 -45.207031 51.671875 -41.363281 51.671875 -35.34375 L 51.671875 -13.640625 C 51.671875 -11.085938 51.769531 -9.476562 51.96875 -8.8125 C 52.164062 -8.15625 52.460938 -7.664062 52.859375 -7.34375 C 53.253906 -7.03125 53.710938 -6.875 54.234375 -6.875 C 55.273438 -6.875 56.332031 -7.613281 57.40625 -9.09375 L 59.203125 -7.65625 C 57.210938 -4.707031 55.148438 -2.5625 53.015625 -1.21875 C 50.878906 0.113281 48.457031 0.78125 45.75 0.78125 C 42.5625 0.78125 40.066406 0.0351562 38.265625 -1.453125 C 36.472656 -2.953125 35.378906 -5.21875 34.984375 -8.25 Z M 34.984375 -12.625 L 34.984375 -31.328125 C 30.160156 -28.503906 26.570312 -25.476562 24.21875 -22.25 C 22.664062 -20.09375 21.890625 -17.921875 21.890625 -15.734375 C 21.890625 -13.890625 22.546875 -12.273438 23.859375 -10.890625 C 24.859375 -9.804688 26.253906 -9.265625 28.046875 -9.265625 C 30.035156 -9.265625 32.347656 -10.382812 34.984375 -12.625 Z M 34.984375 -12.625 "/></g></g></g><g fill="#000000" fill-opacity="1"><g transform="translate(150.541452, 109.512175)"><g><path d="M 58.125 -55.90625 L 58.125 -12.140625 C 58.125 -7.867188 58.519531 -5.207031 59.3125 -4.15625 C 60.113281 -3.101562 61.734375 -2.4375 64.171875 -2.15625 L 64.171875 0 L 41.375 0 L 41.375 -7.46875 C 38.707031 -4.28125 36.035156 -1.957031 33.359375 -0.5 C 30.691406 0.945312 27.703125 1.671875 24.390625 1.671875 C 21.242188 1.671875 18.441406 0.707031 15.984375 -1.21875 C 13.535156 -3.15625 11.894531 -5.421875 11.0625 -8.015625 C 10.226562 -10.609375 9.8125 -15.132812 9.8125 -21.59375 L 9.8125 -43.765625 C 9.8125 -47.992188 9.421875 -50.625 8.640625 -51.65625 C 7.859375 -52.695312 6.234375 -53.378906 3.765625 -53.703125 L 3.765625 -55.90625 L 26.546875 -55.90625 L 26.546875 -17.703125 C 26.546875 -13.710938 26.734375 -11.140625 27.109375 -9.984375 C 27.492188 -8.828125 28.09375 -7.945312 28.90625 -7.34375 C 29.726562 -6.75 30.675781 -6.453125 31.75 -6.453125 C 33.1875 -6.453125 34.484375 -6.832031 35.640625 -7.59375 C 37.234375 -8.632812 39.144531 -10.726562 41.375 -13.875 L 41.375 -43.765625 C 41.375 -47.992188 40.984375 -50.625 40.203125 -51.65625 C 39.429688 -52.695312 37.8125 -53.378906 35.34375 -53.703125 L 35.34375 -55.90625 Z M 58.125 -55.90625 "/></g></g></g><g fill="#000000" fill-opacity="1"><g transform="translate(218.649997, 109.512175)"><g><path d="M 29.359375 1.671875 L 10.53125 -41.6875 C 8.25 -46.90625 6.472656 -50.210938 5.203125 -51.609375 C 4.285156 -52.640625 2.929688 -53.335938 1.140625 -53.703125 L 1.140625 -55.90625 L 30.859375 -55.90625 L 30.859375 -53.703125 C 28.984375 -53.703125 27.707031 -53.363281 27.03125 -52.6875 C 26.070312 -51.8125 25.59375 -50.773438 25.59375 -49.578125 C 25.59375 -48.097656 26.46875 -45.328125 28.21875 -41.265625 L 37.4375 -20.265625 L 44.796875 -38.390625 C 46.898438 -43.578125 47.953125 -47.242188 47.953125 -49.390625 C 47.953125 -50.628906 47.503906 -51.632812 46.609375 -52.40625 C 45.710938 -53.1875 44.128906 -53.617188 41.859375 -53.703125 L 41.859375 -55.90625 L 60.15625 -55.90625 L 60.15625 -53.703125 C 58.40625 -53.460938 56.96875 -52.800781 55.84375 -51.71875 C 54.726562 -50.644531 53.054688 -47.476562 50.828125 -42.21875 L 32.171875 1.671875 Z M 29.359375 1.671875 "/></g></g></g><g fill="#000000" fill-opacity="1"><g transform="translate(279.881911, 109.512175)"><g><path d="M 30.5 -57.59375 C 35.363281 -57.59375 39.882812 -56.332031 44.0625 -53.8125 C 48.25 -51.300781 51.429688 -47.734375 53.609375 -43.109375 C 55.785156 -38.484375 56.875 -33.421875 56.875 -27.921875 C 56.875 -19.992188 54.859375 -13.359375 50.828125 -8.015625 C 45.960938 -1.554688 39.242188 1.671875 30.671875 1.671875 C 22.265625 1.671875 15.785156 -1.273438 11.234375 -7.171875 C 6.691406 -13.078125 4.421875 -19.914062 4.421875 -27.6875 C 4.421875 -35.695312 6.742188 -42.679688 11.390625 -48.640625 C 16.035156 -54.609375 22.40625 -57.59375 30.5 -57.59375 Z M 30.734375 -53.34375 C 28.703125 -53.34375 26.957031 -52.570312 25.5 -51.03125 C 24.050781 -49.5 23.097656 -46.46875 22.640625 -41.9375 C 22.179688 -37.414062 21.953125 -31.128906 21.953125 -23.078125 C 21.953125 -18.816406 22.226562 -14.832031 22.78125 -11.125 C 23.21875 -8.289062 24.15625 -6.132812 25.59375 -4.65625 C 27.03125 -3.1875 28.664062 -2.453125 30.5 -2.453125 C 32.289062 -2.453125 33.785156 -2.953125 34.984375 -3.953125 C 36.535156 -5.304688 37.570312 -7.195312 38.09375 -9.625 C 38.882812 -13.414062 39.28125 -21.070312 39.28125 -32.59375 C 39.28125 -39.363281 38.898438 -44.015625 38.140625 -46.546875 C 37.390625 -49.078125 36.273438 -50.921875 34.796875 -52.078125 C 33.765625 -52.921875 32.410156 -53.34375 30.734375 -53.34375 Z M 30.734375 -53.34375 "/></g></g></g></g></g></svg>