<svg xmlns="http://www.w3.org/2000/svg" xmlns:xlink="http://www.w3.org/1999/xlink" width="800" zoomAndPan="magnify" viewBox="0 0 600 749.999995" height="1000" preserveAspectRatio="xMidYMid meet" version="1.0"><defs><g/><clipPath id="9349da9a72"><path d="M 12.5625 32.90625 L 587.0625 32.90625 L 587.0625 607.40625 L 12.5625 607.40625 Z M 12.5625 32.90625 " clip-rule="nonzero"/></clipPath><clipPath id="1a2bdbe201"><rect x="0" width="280" y="0" height="137"/></clipPath></defs><g clip-path="url(#9349da9a72)"><path fill="#000000" d="M 181.171875 36.417969 C 134.410156 38.535156 93.878906 49.964844 61.152344 82.546875 C 28.3125 115.308594 17.019531 156 14.90625 202.273438 C 13.589844 231.152344 5.902344 449.351562 28.195312 506.574219 C 43.230469 545.175781 72.84375 574.871094 111.800781 589.949219 C 129.976562 597.015625 150.730469 601.8125 181.171875 603.199219 C 435.695312 614.71875 530.046875 608.445312 569.835938 506.574219 C 576.894531 488.441406 581.753906 467.710938 583.097656 437.347656 C 594.730469 182.171875 581.210938 126.855469 536.851562 82.546875 C 501.664062 47.453125 460.277344 23.566406 181.171875 36.417969 M 183.511719 551.882812 C 155.644531 550.632812 140.527344 545.976562 130.4375 542.078125 C 105.054688 532.214844 85.992188 513.226562 76.1875 487.992188 C 59.207031 444.511719 64.839844 237.996094 66.355469 204.585938 C 67.839844 171.847656 74.472656 141.945312 97.566406 118.847656 C 126.148438 90.332031 163.078125 76.363281 414.515625 87.707031 C 447.328125 89.195312 477.3125 95.8125 500.464844 118.847656 C 529.046875 147.359375 543.226562 184.570312 531.675781 435.046875 C 530.417969 462.84375 525.761719 477.921875 521.84375 487.992188 C 495.976562 554.28125 436.46875 563.496094 183.511719 551.882812 M 417.289062 167.601562 C 417.289062 186.480469 432.636719 201.824219 451.589844 201.824219 C 470.539062 201.824219 485.917969 186.480469 485.917969 167.601562 C 485.917969 148.734375 470.539062 133.390625 451.589844 133.390625 C 432.636719 133.390625 417.289062 148.734375 417.289062 167.601562 M 152.246094 319.792969 C 152.246094 400.652344 217.957031 466.210938 299.015625 466.210938 C 380.074219 466.210938 445.789062 400.652344 445.789062 319.792969 C 445.789062 238.9375 380.074219 173.421875 299.015625 173.421875 C 217.957031 173.421875 152.246094 238.9375 152.246094 319.792969 M 203.75 319.792969 C 203.75 267.335938 246.394531 224.769531 299.015625 224.769531 C 351.636719 224.769531 394.28125 267.335938 394.28125 319.792969 C 394.28125 372.292969 351.636719 414.863281 299.015625 414.863281 C 246.394531 414.863281 203.75 372.292969 203.75 319.792969 " fill-opacity="1" fill-rule="evenodd"/></g><g transform="matrix(1, 0, 0, 1, 160, 604)"><g clip-path="url(#1a2bdbe201)"><g fill="#000000" fill-opacity="1"><g transform="translate(0.486049, 109.512175)"><g><path d="M 30.5 -81.09375 L 70.5 -30.796875 L 70.5 -65.65625 C 70.5 -70.519531 69.800781 -73.8125 68.40625 -75.53125 C 66.5 -77.84375 63.289062 -78.957031 58.78125 -78.875 L 58.78125 -81.09375 L 85.578125 -81.09375 L 85.578125 -78.875 C 82.148438 -78.4375 79.847656 -77.867188 78.671875 -77.171875 C 77.492188 -76.472656 76.570312 -75.335938 75.90625 -73.765625 C 75.25 -72.191406 74.921875 -69.488281 74.921875 -65.65625 L 74.921875 1.859375 L 72.890625 1.859375 L 18.0625 -65.65625 L 18.0625 -14.109375 C 18.0625 -9.441406 19.125 -6.289062 21.25 -4.65625 C 23.382812 -3.03125 25.828125 -2.21875 28.578125 -2.21875 L 30.5 -2.21875 L 30.5 0 L 1.734375 0 L 1.734375 -2.21875 C 6.203125 -2.25 9.3125 -3.160156 11.0625 -4.953125 C 12.8125 -6.753906 13.6875 -9.804688 13.6875 -14.109375 L 13.6875 -71.34375 L 11.953125 -73.5 C 10.242188 -75.644531 8.726562 -77.054688 7.40625 -77.734375 C 6.09375 -78.410156 4.203125 -78.789062 1.734375 -78.875 L 1.734375 -81.09375 Z M 30.5 -81.09375 "/></g></g></g><g fill="#000000" fill-opacity="1"><g transform="translate(88.925503, 109.512175)"><g><path d="M 34.984375 -8.25 C 28.160156 -2.226562 22.039062 0.78125 16.625 0.78125 C 13.4375 0.78125 10.785156 -0.265625 8.671875 -2.359375 C 6.554688 -4.453125 5.5 -7.070312 5.5 -10.21875 C 5.5 -14.488281 7.332031 -18.328125 11 -21.734375 C 14.664062 -25.140625 22.660156 -29.675781 34.984375 -35.34375 L 34.984375 -40.96875 C 34.984375 -45.1875 34.753906 -47.84375 34.296875 -48.9375 C 33.835938 -50.039062 32.96875 -51 31.6875 -51.8125 C 30.414062 -52.632812 28.984375 -53.046875 27.390625 -53.046875 C 24.796875 -53.046875 22.660156 -52.46875 20.984375 -51.3125 C 19.953125 -50.59375 19.4375 -49.753906 19.4375 -48.796875 C 19.4375 -47.960938 19.992188 -46.925781 21.109375 -45.6875 C 22.617188 -43.96875 23.375 -42.3125 23.375 -40.71875 C 23.375 -38.769531 22.644531 -37.109375 21.1875 -35.734375 C 19.738281 -34.359375 17.835938 -33.671875 15.484375 -33.671875 C 12.972656 -33.671875 10.867188 -34.425781 9.171875 -35.9375 C 7.484375 -37.457031 6.640625 -39.234375 6.640625 -41.265625 C 6.640625 -44.128906 7.773438 -46.867188 10.046875 -49.484375 C 12.316406 -52.097656 15.484375 -54.101562 19.546875 -55.5 C 23.617188 -56.894531 27.847656 -57.59375 32.234375 -57.59375 C 37.535156 -57.59375 41.726562 -56.460938 44.8125 -54.203125 C 47.90625 -51.953125 49.910156 -49.507812 50.828125 -46.875 C 51.390625 -45.207031 51.671875 -41.363281 51.671875 -35.34375 L 51.671875 -13.640625 C 51.671875 -11.085938 51.769531 -9.476562 51.96875 -8.8125 C 52.164062 -8.15625 52.460938 -7.664062 52.859375 -7.34375 C 53.253906 -7.03125 53.710938 -6.875 54.234375 -6.875 C 55.273438 -6.875 56.332031 -7.613281 57.40625 -9.09375 L 59.203125 -7.65625 C 57.210938 -4.707031 55.148438 -2.5625 53.015625 -1.21875 C 50.878906 0.113281 48.457031 0.78125 45.75 0.78125 C 42.5625 0.78125 40.066406 0.0351562 38.265625 -1.453125 C 36.472656 -2.953125 35.378906 -5.21875 34.984375 -8.25 Z M 34.984375 -12.625 L 34.984375 -31.328125 C 30.160156 -28.503906 26.570312 -25.476562 24.21875 -22.25 C 22.664062 -20.09375 21.890625 -17.921875 21.890625 -15.734375 C 21.890625 -13.890625 22.546875 -12.273438 23.859375 -10.890625 C 24.859375 -9.804688 26.253906 -9.265625 28.046875 -9.265625 C 30.035156 -9.265625 32.347656 -10.382812 34.984375 -12.625 Z M 34.984375 -12.625 "/></g></g></g><g fill="#000000" fill-opacity="1"><g transform="translate(150.157417, 109.512175)"><g><path d="M 40 -55.25 L 58.84375 -55.25 L 58.84375 -48.671875 L 48.140625 -48.671875 C 50.085938 -46.722656 51.441406 -44.953125 52.203125 -43.359375 C 53.160156 -41.203125 53.640625 -38.945312 53.640625 -36.59375 C 53.640625 -32.613281 52.53125 -29.15625 50.3125 -26.21875 C 48.101562 -23.289062 45.09375 -21 41.28125 -19.34375 C 37.476562 -17.6875 34.101562 -16.859375 31.15625 -16.859375 C 30.914062 -16.859375 28.523438 -16.957031 23.984375 -17.15625 C 22.179688 -17.15625 20.671875 -16.566406 19.453125 -15.390625 C 18.242188 -14.222656 17.640625 -12.820312 17.640625 -11.1875 C 17.640625 -9.75 18.1875 -8.570312 19.28125 -7.65625 C 20.382812 -6.738281 22.171875 -6.28125 24.640625 -6.28125 L 34.984375 -6.40625 C 43.359375 -6.40625 49.117188 -5.484375 52.265625 -3.640625 C 56.765625 -1.097656 59.015625 2.820312 59.015625 8.125 C 59.015625 11.519531 57.976562 14.601562 55.90625 17.375 C 53.832031 20.144531 51.101562 22.1875 47.71875 23.5 C 42.570312 25.457031 36.648438 26.4375 29.953125 26.4375 C 24.929688 26.4375 20.347656 25.945312 16.203125 24.96875 C 12.054688 23.988281 9.085938 22.628906 7.296875 20.890625 C 5.503906 19.160156 4.609375 17.335938 4.609375 15.421875 C 4.609375 13.585938 5.296875 11.941406 6.671875 10.484375 C 8.046875 9.035156 10.609375 7.8125 14.359375 6.8125 C 9.171875 4.257812 6.578125 0.710938 6.578125 -3.828125 C 6.578125 -6.578125 7.632812 -9.25 9.75 -11.84375 C 11.863281 -14.4375 15.210938 -16.6875 19.796875 -18.59375 C 14.453125 -20.550781 10.582031 -23.125 8.1875 -26.3125 C 5.800781 -29.5 4.609375 -33.1875 4.609375 -37.375 C 4.609375 -42.832031 6.835938 -47.566406 11.296875 -51.578125 C 15.765625 -55.585938 21.507812 -57.59375 28.53125 -57.59375 C 32.226562 -57.59375 36.050781 -56.8125 40 -55.25 Z M 29.65625 -53.875 C 27.34375 -53.875 25.390625 -52.707031 23.796875 -50.375 C 22.203125 -48.039062 21.40625 -43.207031 21.40625 -35.875 C 21.40625 -29.9375 22.191406 -25.859375 23.765625 -23.640625 C 25.335938 -21.429688 27.203125 -20.328125 29.359375 -20.328125 C 31.753906 -20.328125 33.75 -21.421875 35.34375 -23.609375 C 36.9375 -25.804688 37.734375 -30.078125 37.734375 -36.421875 C 37.734375 -43.554688 36.835938 -48.421875 35.046875 -51.015625 C 33.765625 -52.921875 31.96875 -53.875 29.65625 -53.875 Z M 26.125 8.25 C 22.0625 8.25 19.375 8.585938 18.0625 9.265625 C 15.789062 10.503906 14.65625 12.179688 14.65625 14.296875 C 14.65625 16.328125 15.828125 18.171875 18.171875 19.828125 C 20.523438 21.484375 24.953125 22.3125 31.453125 22.3125 C 36.992188 22.3125 41.347656 21.570312 44.515625 20.09375 C 47.691406 18.613281 49.28125 16.539062 49.28125 13.875 C 49.28125 12.875 48.976562 12.035156 48.375 11.359375 C 47.300781 10.160156 45.675781 9.34375 43.5 8.90625 C 41.332031 8.46875 35.539062 8.25 26.125 8.25 Z M 26.125 8.25 "/></g></g></g><g fill="#000000" fill-opacity="1"><g transform="translate(211.389331, 109.512175)"><g><path d="M 58.125 -55.90625 L 58.125 -12.140625 C 58.125 -7.867188 58.519531 -5.207031 59.3125 -4.15625 C 60.113281 -3.101562 61.734375 -2.4375 64.171875 -2.15625 L 64.171875 0 L 41.375 0 L 41.375 -7.46875 C 38.707031 -4.28125 36.035156 -1.957031 33.359375 -0.5 C 30.691406 0.945312 27.703125 1.671875 24.390625 1.671875 C 21.242188 1.671875 18.441406 0.707031 15.984375 -1.21875 C 13.535156 -3.15625 11.894531 -5.421875 11.0625 -8.015625 C 10.226562 -10.609375 9.8125 -15.132812 9.8125 -21.59375 L 9.8125 -43.765625 C 9.8125 -47.992188 9.421875 -50.625 8.640625 -51.65625 C 7.859375 -52.695312 6.234375 -53.378906 3.765625 -53.703125 L 3.765625 -55.90625 L 26.546875 -55.90625 L 26.546875 -17.703125 C 26.546875 -13.710938 26.734375 -11.140625 27.109375 -9.984375 C 27.492188 -8.828125 28.09375 -7.945312 28.90625 -7.34375 C 29.726562 -6.75 30.675781 -6.453125 31.75 -6.453125 C 33.1875 -6.453125 34.484375 -6.832031 35.640625 -7.59375 C 37.234375 -8.632812 39.144531 -10.726562 41.375 -13.875 L 41.375 -43.765625 C 41.375 -47.992188 40.984375 -50.625 40.203125 -51.65625 C 39.429688 -52.695312 37.8125 -53.378906 35.34375 -53.703125 L 35.34375 -55.90625 Z M 58.125 -55.90625 "/></g></g></g></g></g></svg>