<svg xmlns="http://www.w3.org/2000/svg" xmlns:xlink="http://www.w3.org/1999/xlink" width="800" zoomAndPan="magnify" viewBox="0 0 600 749.999995" height="1000" preserveAspectRatio="xMidYMid meet" version="1.0"><defs><g/><clipPath id="b3d17ea7ea"><path d="M 12.5625 32.90625 L 587.0625 32.90625 L 587.0625 607.40625 L 12.5625 607.40625 Z M 12.5625 32.90625 " clip-rule="nonzero"/></clipPath><clipPath id="f7aadb8035"><rect x="0" width="478" y="0" height="137"/></clipPath></defs><g clip-path="url(#b3d17ea7ea)"><path fill="#000000" d="M 181.171875 36.417969 C 134.410156 38.535156 93.878906 49.964844 61.152344 82.546875 C 28.3125 115.308594 17.019531 156 14.90625 202.273438 C 13.589844 231.152344 5.902344 449.351562 28.195312 506.574219 C 43.230469 545.175781 72.84375 574.871094 111.800781 589.949219 C 129.976562 597.015625 150.730469 601.8125 181.171875 603.199219 C 435.695312 614.71875 530.046875 608.445312 569.835938 506.574219 C 576.894531 488.441406 581.753906 467.710938 583.097656 437.347656 C 594.730469 182.171875 581.210938 126.855469 536.851562 82.546875 C 501.664062 47.453125 460.277344 23.566406 181.171875 36.417969 M 183.511719 551.882812 C 155.644531 550.632812 140.527344 545.976562 130.4375 542.078125 C 105.054688 532.214844 85.992188 513.226562 76.1875 487.992188 C 59.207031 444.511719 64.839844 237.996094 66.355469 204.585938 C 67.839844 171.847656 74.472656 141.945312 97.566406 118.847656 C 126.148438 90.332031 163.078125 76.363281 414.515625 87.707031 C 447.328125 89.195312 477.3125 95.8125 500.464844 118.847656 C 529.046875 147.359375 543.226562 184.570312 531.675781 435.046875 C 530.417969 462.84375 525.761719 477.921875 521.84375 487.992188 C 495.976562 554.28125 436.46875 563.496094 183.511719 551.882812 M 417.289062 167.601562 C 417.289062 186.480469 432.636719 201.824219 451.589844 201.824219 C 470.539062 201.824219 485.917969 186.480469 485.917969 167.601562 C 485.917969 148.734375 470.539062 133.390625 451.589844 133.390625 C 432.636719 133.390625 417.289062 148.734375 417.289062 167.601562 M 152.246094 319.792969 C 152.246094 400.652344 217.957031 466.210938 299.015625 466.210938 C 380.074219 466.210938 445.789062 400.652344 445.789062 319.792969 C 445.789062 238.9375 380.074219 173.421875 299.015625 173.421875 C 217.957031 173.421875 152.246094 238.9375 152.246094 319.792969 M 203.75 319.792969 C 203.75 267.335938 246.394531 224.769531 299.015625 224.769531 C 351.636719 224.769531 394.28125 267.335938 394.28125 319.792969 C 394.28125 372.292969 351.636719 414.863281 299.015625 414.863281 C 246.394531 414.863281 203.75 372.292969 203.75 319.792969 " fill-opacity="1" fill-rule="evenodd"/></g><g transform="matrix(1, 0, 0, 1, 61, 604)"><g clip-path="url(#f7aadb8035)"><g fill="#000000" fill-opacity="1"><g transform="translate(0.878046, 109.512175)"><g><path d="M 33.0625 -36.71875 L 33.0625 -14.234375 C 33.0625 -9.847656 33.332031 -7.085938 33.875 -5.953125 C 34.414062 -4.816406 35.375 -3.910156 36.75 -3.234375 C 38.125 -2.554688 40.644531 -2.21875 44.3125 -2.21875 L 44.3125 0 L 3.109375 0 L 3.109375 -2.21875 C 6.859375 -2.21875 9.398438 -2.566406 10.734375 -3.265625 C 12.066406 -3.960938 13.003906 -4.867188 13.546875 -5.984375 C 14.085938 -7.097656 14.359375 -9.847656 14.359375 -14.234375 L 14.359375 -66.859375 C 14.359375 -71.242188 14.085938 -74.003906 13.546875 -75.140625 C 13.003906 -76.273438 12.054688 -77.179688 10.703125 -77.859375 C 9.347656 -78.535156 6.816406 -78.875 3.109375 -78.875 L 3.109375 -81.09375 L 38.453125 -81.09375 C 50.085938 -81.09375 58.4375 -79.019531 63.5 -74.875 C 68.5625 -70.726562 71.09375 -65.546875 71.09375 -59.328125 C 71.09375 -54.054688 69.457031 -49.546875 66.1875 -45.796875 C 62.925781 -42.054688 58.425781 -39.507812 52.6875 -38.15625 C 48.8125 -37.195312 42.269531 -36.71875 33.0625 -36.71875 Z M 33.0625 -76.421875 L 33.0625 -41.375 C 34.382812 -41.300781 35.382812 -41.265625 36.0625 -41.265625 C 40.925781 -41.265625 44.671875 -42.707031 47.296875 -45.59375 C 49.929688 -48.488281 51.25 -52.960938 51.25 -59.015625 C 51.25 -65.035156 49.929688 -69.441406 47.296875 -72.234375 C 44.671875 -75.023438 40.742188 -76.421875 35.515625 -76.421875 Z M 33.0625 -76.421875 "/></g></g></g><g fill="#000000" fill-opacity="1"><g transform="translate(75.683832, 109.512175)"><g><path d="M 34.984375 -8.25 C 28.160156 -2.226562 22.039062 0.78125 16.625 0.78125 C 13.4375 0.78125 10.785156 -0.265625 8.671875 -2.359375 C 6.554688 -4.453125 5.5 -7.070312 5.5 -10.21875 C 5.5 -14.488281 7.332031 -18.328125 11 -21.734375 C 14.664062 -25.140625 22.660156 -29.675781 34.984375 -35.34375 L 34.984375 -40.96875 C 34.984375 -45.1875 34.753906 -47.84375 34.296875 -48.9375 C 33.835938 -50.039062 32.96875 -51 31.6875 -51.8125 C 30.414062 -52.632812 28.984375 -53.046875 27.390625 -53.046875 C 24.796875 -53.046875 22.660156 -52.46875 20.984375 -51.3125 C 19.953125 -50.59375 19.4375 -49.753906 19.4375 -48.796875 C 19.4375 -47.960938 19.992188 -46.925781 21.109375 -45.6875 C 22.617188 -43.96875 23.375 -42.3125 23.375 -40.71875 C 23.375 -38.769531 22.644531 -37.109375 21.1875 -35.734375 C 19.738281 -34.359375 17.835938 -33.671875 15.484375 -33.671875 C 12.972656 -33.671875 10.867188 -34.425781 9.171875 -35.9375 C 7.484375 -37.457031 6.640625 -39.234375 6.640625 -41.265625 C 6.640625 -44.128906 7.773438 -46.867188 10.046875 -49.484375 C 12.316406 -52.097656 15.484375 -54.101562 19.546875 -55.5 C 23.617188 -56.894531 27.847656 -57.59375 32.234375 -57.59375 C 37.535156 -57.59375 41.726562 -56.460938 44.8125 -54.203125 C 47.90625 -51.953125 49.910156 -49.507812 50.828125 -46.875 C 51.390625 -45.207031 51.671875 -41.363281 51.671875 -35.34375 L 51.671875 -13.640625 C 51.671875 -11.085938 51.769531 -9.476562 51.96875 -8.8125 C 52.164062 -8.15625 52.460938 -7.664062 52.859375 -7.34375 C 53.253906 -7.03125 53.710938 -6.875 54.234375 -6.875 C 55.273438 -6.875 56.332031 -7.613281 57.40625 -9.09375 L 59.203125 -7.65625 C 57.210938 -4.707031 55.148438 -2.5625 53.015625 -1.21875 C 50.878906 0.113281 48.457031 0.78125 45.75 0.78125 C 42.5625 0.78125 40.066406 0.0351562 38.265625 -1.453125 C 36.472656 -2.953125 35.378906 -5.21875 34.984375 -8.25 Z M 34.984375 -12.625 L 34.984375 -31.328125 C 30.160156 -28.503906 26.570312 -25.476562 24.21875 -22.25 C 22.664062 -20.09375 21.890625 -17.921875 21.890625 -15.734375 C 21.890625 -13.890625 22.546875 -12.273438 23.859375 -10.890625 C 24.859375 -9.804688 26.253906 -9.265625 28.046875 -9.265625 C 30.035156 -9.265625 32.347656 -10.382812 34.984375 -12.625 Z M 34.984375 -12.625 "/></g></g></g><g fill="#000000" fill-opacity="1"><g transform="translate(136.915746, 109.512175)"><g><path d="M 27.328125 -55.90625 L 27.328125 -43.234375 C 31.035156 -49.015625 34.285156 -52.851562 37.078125 -54.75 C 39.867188 -56.644531 42.554688 -57.59375 45.140625 -57.59375 C 47.378906 -57.59375 49.164062 -56.898438 50.5 -55.515625 C 51.832031 -54.140625 52.5 -52.195312 52.5 -49.6875 C 52.5 -47.019531 51.847656 -44.945312 50.546875 -43.46875 C 49.253906 -42 47.691406 -41.265625 45.859375 -41.265625 C 43.753906 -41.265625 41.921875 -41.941406 40.359375 -43.296875 C 38.804688 -44.648438 37.890625 -45.40625 37.609375 -45.5625 C 37.210938 -45.800781 36.753906 -45.921875 36.234375 -45.921875 C 35.078125 -45.921875 33.984375 -45.484375 32.953125 -44.609375 C 31.316406 -43.253906 30.078125 -41.320312 29.234375 -38.8125 C 27.960938 -34.945312 27.328125 -30.679688 27.328125 -26.015625 L 27.328125 -13.15625 L 27.390625 -9.8125 C 27.390625 -7.539062 27.53125 -6.082031 27.8125 -5.4375 C 28.289062 -4.363281 28.992188 -3.578125 29.921875 -3.078125 C 30.859375 -2.578125 32.445312 -2.269531 34.6875 -2.15625 L 34.6875 0 L 4.484375 0 L 4.484375 -2.15625 C 6.910156 -2.351562 8.550781 -3.019531 9.40625 -4.15625 C 10.269531 -5.289062 10.703125 -8.289062 10.703125 -13.15625 L 10.703125 -44.078125 C 10.703125 -47.265625 10.539062 -49.296875 10.21875 -50.171875 C 9.820312 -51.285156 9.242188 -52.101562 8.484375 -52.625 C 7.734375 -53.144531 6.398438 -53.503906 4.484375 -53.703125 L 4.484375 -55.90625 Z M 27.328125 -55.90625 "/></g></g></g><g fill="#000000" fill-opacity="1"><g transform="translate(191.271029, 109.512175)"><g><path d="M 34.984375 -8.25 C 28.160156 -2.226562 22.039062 0.78125 16.625 0.78125 C 13.4375 0.78125 10.785156 -0.265625 8.671875 -2.359375 C 6.554688 -4.453125 5.5 -7.070312 5.5 -10.21875 C 5.5 -14.488281 7.332031 -18.328125 11 -21.734375 C 14.664062 -25.140625 22.660156 -29.675781 34.984375 -35.34375 L 34.984375 -40.96875 C 34.984375 -45.1875 34.753906 -47.84375 34.296875 -48.9375 C 33.835938 -50.039062 32.96875 -51 31.6875 -51.8125 C 30.414062 -52.632812 28.984375 -53.046875 27.390625 -53.046875 C 24.796875 -53.046875 22.660156 -52.46875 20.984375 -51.3125 C 19.953125 -50.59375 19.4375 -49.753906 19.4375 -48.796875 C 19.4375 -47.960938 19.992188 -46.925781 21.109375 -45.6875 C 22.617188 -43.96875 23.375 -42.3125 23.375 -40.71875 C 23.375 -38.769531 22.644531 -37.109375 21.1875 -35.734375 C 19.738281 -34.359375 17.835938 -33.671875 15.484375 -33.671875 C 12.972656 -33.671875 10.867188 -34.425781 9.171875 -35.9375 C 7.484375 -37.457031 6.640625 -39.234375 6.640625 -41.265625 C 6.640625 -44.128906 7.773438 -46.867188 10.046875 -49.484375 C 12.316406 -52.097656 15.484375 -54.101562 19.546875 -55.5 C 23.617188 -56.894531 27.847656 -57.59375 32.234375 -57.59375 C 37.535156 -57.59375 41.726562 -56.460938 44.8125 -54.203125 C 47.90625 -51.953125 49.910156 -49.507812 50.828125 -46.875 C 51.390625 -45.207031 51.671875 -41.363281 51.671875 -35.34375 L 51.671875 -13.640625 C 51.671875 -11.085938 51.769531 -9.476562 51.96875 -8.8125 C 52.164062 -8.15625 52.460938 -7.664062 52.859375 -7.34375 C 53.253906 -7.03125 53.710938 -6.875 54.234375 -6.875 C 55.273438 -6.875 56.332031 -7.613281 57.40625 -9.09375 L 59.203125 -7.65625 C 57.210938 -4.707031 55.148438 -2.5625 53.015625 -1.21875 C 50.878906 0.113281 48.457031 0.78125 45.75 0.78125 C 42.5625 0.78125 40.066406 0.0351562 38.265625 -1.453125 C 36.472656 -2.953125 35.378906 -5.21875 34.984375 -8.25 Z M 34.984375 -12.625 L 34.984375 -31.328125 C 30.160156 -28.503906 26.570312 -25.476562 24.21875 -22.25 C 22.664062 -20.09375 21.890625 -17.921875 21.890625 -15.734375 C 21.890625 -13.890625 22.546875 -12.273438 23.859375 -10.890625 C 24.859375 -9.804688 26.253906 -9.265625 28.046875 -9.265625 C 30.035156 -9.265625 32.347656 -10.382812 34.984375 -12.625 Z M 34.984375 -12.625 "/></g></g></g><g fill="#000000" fill-opacity="1"><g transform="translate(252.502943, 109.512175)"><g><path d="M 17.578125 -83 C 20.171875 -83 22.363281 -82.09375 24.15625 -80.28125 C 25.945312 -78.46875 26.84375 -76.285156 26.84375 -73.734375 C 26.84375 -71.179688 25.9375 -69.003906 24.125 -67.203125 C 22.3125 -65.410156 20.128906 -64.515625 17.578125 -64.515625 C 15.023438 -64.515625 12.851562 -65.410156 11.0625 -67.203125 C 9.269531 -69.003906 8.375 -71.179688 8.375 -73.734375 C 8.375 -76.285156 9.269531 -78.46875 11.0625 -80.28125 C 12.851562 -82.09375 15.023438 -83 17.578125 -83 Z M 25.953125 -55.90625 L 25.953125 -11.59375 C 25.953125 -7.65625 26.410156 -5.132812 27.328125 -4.03125 C 28.242188 -2.9375 30.035156 -2.3125 32.703125 -2.15625 L 32.703125 0 L 2.515625 0 L 2.515625 -2.15625 C 4.984375 -2.226562 6.816406 -2.945312 8.015625 -4.3125 C 8.804688 -5.226562 9.203125 -7.65625 9.203125 -11.59375 L 9.203125 -44.25 C 9.203125 -48.195312 8.742188 -50.71875 7.828125 -51.8125 C 6.910156 -52.90625 5.140625 -53.535156 2.515625 -53.703125 L 2.515625 -55.90625 Z M 25.953125 -55.90625 "/></g></g></g><g fill="#000000" fill-opacity="1"><g transform="translate(286.527305, 109.512175)"><g><path d="M 26.96875 -55.90625 L 26.96875 -48.671875 C 29.84375 -51.785156 32.59375 -54.050781 35.21875 -55.46875 C 37.851562 -56.882812 40.6875 -57.59375 43.71875 -57.59375 C 47.34375 -57.59375 50.347656 -56.582031 52.734375 -54.5625 C 55.128906 -52.550781 56.726562 -50.050781 57.53125 -47.0625 C 58.164062 -44.789062 58.484375 -40.425781 58.484375 -33.96875 L 58.484375 -12.203125 C 58.484375 -7.890625 58.867188 -5.207031 59.640625 -4.15625 C 60.421875 -3.101562 62.046875 -2.4375 64.515625 -2.15625 L 64.515625 0 L 36.234375 0 L 36.234375 -2.15625 C 38.347656 -2.4375 39.863281 -3.3125 40.78125 -4.78125 C 41.414062 -5.78125 41.734375 -8.253906 41.734375 -12.203125 L 41.734375 -37.078125 C 41.734375 -41.660156 41.550781 -44.550781 41.1875 -45.75 C 40.832031 -46.945312 40.226562 -47.875 39.375 -48.53125 C 38.519531 -49.1875 37.570312 -49.515625 36.53125 -49.515625 C 33.101562 -49.515625 29.914062 -47.0625 26.96875 -42.15625 L 26.96875 -12.203125 C 26.96875 -8.015625 27.351562 -5.363281 28.125 -4.25 C 28.90625 -3.132812 30.351562 -2.4375 32.46875 -2.15625 L 32.46875 0 L 4.1875 0 L 4.1875 -2.15625 C 6.539062 -2.394531 8.210938 -3.148438 9.203125 -4.421875 C 9.878906 -5.296875 10.21875 -7.890625 10.21875 -12.203125 L 10.21875 -43.765625 C 10.21875 -47.992188 9.828125 -50.625 9.046875 -51.65625 C 8.273438 -52.695312 6.65625 -53.378906 4.1875 -53.703125 L 4.1875 -55.90625 Z M 26.96875 -55.90625 "/></g></g></g><g fill="#000000" fill-opacity="1"><g transform="translate(354.635863, 109.512175)"><g><path d="M 51.484375 -29.953125 L 20.8125 -29.953125 C 21.164062 -22.546875 23.140625 -16.6875 26.734375 -12.375 C 29.484375 -9.070312 32.789062 -7.421875 36.65625 -7.421875 C 39.050781 -7.421875 41.222656 -8.085938 43.171875 -9.421875 C 45.128906 -10.753906 47.222656 -13.15625 49.453125 -16.625 L 51.484375 -15.3125 C 48.453125 -9.132812 45.101562 -4.757812 41.4375 -2.1875 C 37.769531 0.382812 33.523438 1.671875 28.703125 1.671875 C 20.410156 1.671875 14.128906 -1.515625 9.859375 -7.890625 C 6.429688 -13.035156 4.71875 -19.414062 4.71875 -27.03125 C 4.71875 -36.351562 7.238281 -43.773438 12.28125 -49.296875 C 17.332031 -54.828125 23.242188 -57.59375 30.015625 -57.59375 C 35.679688 -57.59375 40.597656 -55.269531 44.765625 -50.625 C 48.929688 -45.976562 51.171875 -39.085938 51.484375 -29.953125 Z M 36.78125 -33.96875 C 36.78125 -40.382812 36.429688 -44.785156 35.734375 -47.171875 C 35.035156 -49.566406 33.945312 -51.382812 32.46875 -52.625 C 31.632812 -53.34375 30.519531 -53.703125 29.125 -53.703125 C 27.050781 -53.703125 25.359375 -52.6875 24.046875 -50.65625 C 21.691406 -47.101562 20.515625 -42.238281 20.515625 -36.0625 L 20.515625 -33.96875 Z M 36.78125 -33.96875 "/></g></g></g><g fill="#000000" fill-opacity="1"><g transform="translate(408.991133, 109.512175)"><g><path d="M 26.96875 -55.90625 L 26.96875 -48.671875 C 29.84375 -51.785156 32.59375 -54.050781 35.21875 -55.46875 C 37.851562 -56.882812 40.6875 -57.59375 43.71875 -57.59375 C 47.34375 -57.59375 50.347656 -56.582031 52.734375 -54.5625 C 55.128906 -52.550781 56.726562 -50.050781 57.53125 -47.0625 C 58.164062 -44.789062 58.484375 -40.425781 58.484375 -33.96875 L 58.484375 -12.203125 C 58.484375 -7.890625 58.867188 -5.207031 59.640625 -4.15625 C 60.421875 -3.101562 62.046875 -2.4375 64.515625 -2.15625 L 64.515625 0 L 36.234375 0 L 36.234375 -2.15625 C 38.347656 -2.4375 39.863281 -3.3125 40.78125 -4.78125 C 41.414062 -5.78125 41.734375 -8.253906 41.734375 -12.203125 L 41.734375 -37.078125 C 41.734375 -41.660156 41.550781 -44.550781 41.1875 -45.75 C 40.832031 -46.945312 40.226562 -47.875 39.375 -48.53125 C 38.519531 -49.1875 37.570312 -49.515625 36.53125 -49.515625 C 33.101562 -49.515625 29.914062 -47.0625 26.96875 -42.15625 L 26.96875 -12.203125 C 26.96875 -8.015625 27.351562 -5.363281 28.125 -4.25 C 28.90625 -3.132812 30.351562 -2.4375 32.46875 -2.15625 L 32.46875 0 L 4.1875 0 L 4.1875 -2.15625 C 6.539062 -2.394531 8.210938 -3.148438 9.203125 -4.421875 C 9.878906 -5.296875 10.21875 -7.890625 10.21875 -12.203125 L 10.21875 -43.765625 C 10.21875 -47.992188 9.828125 -50.625 9.046875 -51.65625 C 8.273438 -52.695312 6.65625 -53.378906 4.1875 -53.703125 L 4.1875 -55.90625 Z M 26.96875 -55.90625 "/></g></g></g></g></g></svg>