<svg xmlns="http://www.w3.org/2000/svg" xmlns:xlink="http://www.w3.org/1999/xlink" width="800" zoomAndPan="magnify" viewBox="0 0 600 749.999995" height="1000" preserveAspectRatio="xMidYMid meet" version="1.0"><defs><g/><clipPath id="0f95137b2a"><path d="M 12.5625 32.90625 L 587.0625 32.90625 L 587.0625 607.40625 L 12.5625 607.40625 Z M 12.5625 32.90625 " clip-rule="nonzero"/></clipPath><clipPath id="0499080eb1"><rect x="0" width="362" y="0" height="137"/></clipPath></defs><g clip-path="url(#0f95137b2a)"><path fill="#000000" d="M 181.171875 36.417969 C 134.410156 38.535156 93.878906 49.964844 61.152344 82.546875 C 28.3125 115.308594 17.019531 156 14.90625 202.273438 C 13.589844 231.152344 5.902344 449.351562 28.195312 506.574219 C 43.230469 545.175781 72.84375 574.871094 111.800781 589.949219 C 129.976562 597.015625 150.730469 601.8125 181.171875 603.199219 C 435.695312 614.71875 530.046875 608.445312 569.835938 506.574219 C 576.894531 488.441406 581.753906 467.710938 583.097656 437.347656 C 594.730469 182.171875 581.210938 126.855469 536.851562 82.546875 C 501.664062 47.453125 460.277344 23.566406 181.171875 36.417969 M 183.511719 551.882812 C 155.644531 550.632812 140.527344 545.976562 130.4375 542.078125 C 105.054688 532.214844 85.992188 513.226562 76.1875 487.992188 C 59.207031 444.511719 64.839844 237.996094 66.355469 204.585938 C 67.839844 171.847656 74.472656 141.945312 97.566406 118.847656 C 126.148438 90.332031 163.078125 76.363281 414.515625 87.707031 C 447.328125 89.195312 477.3125 95.8125 500.464844 118.847656 C 529.046875 147.359375 543.226562 184.570312 531.675781 435.046875 C 530.417969 462.84375 525.761719 477.921875 521.84375 487.992188 C 495.976562 554.28125 436.46875 563.496094 183.511719 551.882812 M 417.289062 167.601562 C 417.289062 186.480469 432.636719 201.824219 451.589844 201.824219 C 470.539062 201.824219 485.917969 186.480469 485.917969 167.601562 C 485.917969 148.734375 470.539062 133.390625 451.589844 133.390625 C 432.636719 133.390625 417.289062 148.734375 417.289062 167.601562 M 152.246094 319.792969 C 152.246094 400.652344 217.957031 466.210938 299.015625 466.210938 C 380.074219 466.210938 445.789062 400.652344 445.789062 319.792969 C 445.789062 238.9375 380.074219 173.421875 299.015625 173.421875 C 217.957031 173.421875 152.246094 238.9375 152.246094 319.792969 M 203.75 319.792969 C 203.75 267.335938 246.394531 224.769531 299.015625 224.769531 C 351.636719 224.769531 394.28125 267.335938 394.28125 319.792969 C 394.28125 372.292969 351.636719 414.863281 299.015625 414.863281 C 246.394531 414.863281 203.75 372.292969 203.75 319.792969 " fill-opacity="1" fill-rule="evenodd"/></g><g transform="matrix(1, 0, 0, 1, 119, 604)"><g clip-path="url(#0499080eb1)"><g fill="#000000" fill-opacity="1"><g transform="translate(0.736405, 109.512175)"><g><path d="M 33.0625 -36.71875 L 33.0625 -14.234375 C 33.0625 -9.847656 33.332031 -7.085938 33.875 -5.953125 C 34.414062 -4.816406 35.375 -3.910156 36.75 -3.234375 C 38.125 -2.554688 40.644531 -2.21875 44.3125 -2.21875 L 44.3125 0 L 3.109375 0 L 3.109375 -2.21875 C 6.859375 -2.21875 9.398438 -2.566406 10.734375 -3.265625 C 12.066406 -3.960938 13.003906 -4.867188 13.546875 -5.984375 C 14.085938 -7.097656 14.359375 -9.847656 14.359375 -14.234375 L 14.359375 -66.859375 C 14.359375 -71.242188 14.085938 -74.003906 13.546875 -75.140625 C 13.003906 -76.273438 12.054688 -77.179688 10.703125 -77.859375 C 9.347656 -78.535156 6.816406 -78.875 3.109375 -78.875 L 3.109375 -81.09375 L 38.453125 -81.09375 C 50.085938 -81.09375 58.4375 -79.019531 63.5 -74.875 C 68.5625 -70.726562 71.09375 -65.546875 71.09375 -59.328125 C 71.09375 -54.054688 69.457031 -49.546875 66.1875 -45.796875 C 62.925781 -42.054688 58.425781 -39.507812 52.6875 -38.15625 C 48.8125 -37.195312 42.269531 -36.71875 33.0625 -36.71875 Z M 33.0625 -76.421875 L 33.0625 -41.375 C 34.382812 -41.300781 35.382812 -41.265625 36.0625 -41.265625 C 40.925781 -41.265625 44.671875 -42.707031 47.296875 -45.59375 C 49.929688 -48.488281 51.25 -52.960938 51.25 -59.015625 C 51.25 -65.035156 49.929688 -69.441406 47.296875 -72.234375 C 44.671875 -75.023438 40.742188 -76.421875 35.515625 -76.421875 Z M 33.0625 -76.421875 "/></g></g></g><g fill="#000000" fill-opacity="1"><g transform="translate(75.542191, 109.512175)"><g><path d="M 34.984375 -8.25 C 28.160156 -2.226562 22.039062 0.78125 16.625 0.78125 C 13.4375 0.78125 10.785156 -0.265625 8.671875 -2.359375 C 6.554688 -4.453125 5.5 -7.070312 5.5 -10.21875 C 5.5 -14.488281 7.332031 -18.328125 11 -21.734375 C 14.664062 -25.140625 22.660156 -29.675781 34.984375 -35.34375 L 34.984375 -40.96875 C 34.984375 -45.1875 34.753906 -47.84375 34.296875 -48.9375 C 33.835938 -50.039062 32.96875 -51 31.6875 -51.8125 C 30.414062 -52.632812 28.984375 -53.046875 27.390625 -53.046875 C 24.796875 -53.046875 22.660156 -52.46875 20.984375 -51.3125 C 19.953125 -50.59375 19.4375 -49.753906 19.4375 -48.796875 C 19.4375 -47.960938 19.992188 -46.925781 21.109375 -45.6875 C 22.617188 -43.96875 23.375 -42.3125 23.375 -40.71875 C 23.375 -38.769531 22.644531 -37.109375 21.1875 -35.734375 C 19.738281 -34.359375 17.835938 -33.671875 15.484375 -33.671875 C 12.972656 -33.671875 10.867188 -34.425781 9.171875 -35.9375 C 7.484375 -37.457031 6.640625 -39.234375 6.640625 -41.265625 C 6.640625 -44.128906 7.773438 -46.867188 10.046875 -49.484375 C 12.316406 -52.097656 15.484375 -54.101562 19.546875 -55.5 C 23.617188 -56.894531 27.847656 -57.59375 32.234375 -57.59375 C 37.535156 -57.59375 41.726562 -56.460938 44.8125 -54.203125 C 47.90625 -51.953125 49.910156 -49.507812 50.828125 -46.875 C 51.390625 -45.207031 51.671875 -41.363281 51.671875 -35.34375 L 51.671875 -13.640625 C 51.671875 -11.085938 51.769531 -9.476562 51.96875 -8.8125 C 52.164062 -8.15625 52.460938 -7.664062 52.859375 -7.34375 C 53.253906 -7.03125 53.710938 -6.875 54.234375 -6.875 C 55.273438 -6.875 56.332031 -7.613281 57.40625 -9.09375 L 59.203125 -7.65625 C 57.210938 -4.707031 55.148438 -2.5625 53.015625 -1.21875 C 50.878906 0.113281 48.457031 0.78125 45.75 0.78125 C 42.5625 0.78125 40.066406 0.0351562 38.265625 -1.453125 C 36.472656 -2.953125 35.378906 -5.21875 34.984375 -8.25 Z M 34.984375 -12.625 L 34.984375 -31.328125 C 30.160156 -28.503906 26.570312 -25.476562 24.21875 -22.25 C 22.664062 -20.09375 21.890625 -17.921875 21.890625 -15.734375 C 21.890625 -13.890625 22.546875 -12.273438 23.859375 -10.890625 C 24.859375 -9.804688 26.253906 -9.265625 28.046875 -9.265625 C 30.035156 -9.265625 32.347656 -10.382812 34.984375 -12.625 Z M 34.984375 -12.625 "/></g></g></g><g fill="#000000" fill-opacity="1"><g transform="translate(136.774105, 109.512175)"><g><path d="M 27.328125 -55.90625 L 27.328125 -43.234375 C 31.035156 -49.015625 34.285156 -52.851562 37.078125 -54.75 C 39.867188 -56.644531 42.554688 -57.59375 45.140625 -57.59375 C 47.378906 -57.59375 49.164062 -56.898438 50.5 -55.515625 C 51.832031 -54.140625 52.5 -52.195312 52.5 -49.6875 C 52.5 -47.019531 51.847656 -44.945312 50.546875 -43.46875 C 49.253906 -42 47.691406 -41.265625 45.859375 -41.265625 C 43.753906 -41.265625 41.921875 -41.941406 40.359375 -43.296875 C 38.804688 -44.648438 37.890625 -45.40625 37.609375 -45.5625 C 37.210938 -45.800781 36.753906 -45.921875 36.234375 -45.921875 C 35.078125 -45.921875 33.984375 -45.484375 32.953125 -44.609375 C 31.316406 -43.253906 30.078125 -41.320312 29.234375 -38.8125 C 27.960938 -34.945312 27.328125 -30.679688 27.328125 -26.015625 L 27.328125 -13.15625 L 27.390625 -9.8125 C 27.390625 -7.539062 27.53125 -6.082031 27.8125 -5.4375 C 28.289062 -4.363281 28.992188 -3.578125 29.921875 -3.078125 C 30.859375 -2.578125 32.445312 -2.269531 34.6875 -2.15625 L 34.6875 0 L 4.484375 0 L 4.484375 -2.15625 C 6.910156 -2.351562 8.550781 -3.019531 9.40625 -4.15625 C 10.269531 -5.289062 10.703125 -8.289062 10.703125 -13.15625 L 10.703125 -44.078125 C 10.703125 -47.265625 10.539062 -49.296875 10.21875 -50.171875 C 9.820312 -51.285156 9.242188 -52.101562 8.484375 -52.625 C 7.734375 -53.144531 6.398438 -53.503906 4.484375 -53.703125 L 4.484375 -55.90625 Z M 27.328125 -55.90625 "/></g></g></g><g fill="#000000" fill-opacity="1"><g transform="translate(191.129388, 109.512175)"><g><path d="M 40 -55.25 L 58.84375 -55.25 L 58.84375 -48.671875 L 48.140625 -48.671875 C 50.085938 -46.722656 51.441406 -44.953125 52.203125 -43.359375 C 53.160156 -41.203125 53.640625 -38.945312 53.640625 -36.59375 C 53.640625 -32.613281 52.53125 -29.15625 50.3125 -26.21875 C 48.101562 -23.289062 45.09375 -21 41.28125 -19.34375 C 37.476562 -17.6875 34.101562 -16.859375 31.15625 -16.859375 C 30.914062 -16.859375 28.523438 -16.957031 23.984375 -17.15625 C 22.179688 -17.15625 20.671875 -16.566406 19.453125 -15.390625 C 18.242188 -14.222656 17.640625 -12.820312 17.640625 -11.1875 C 17.640625 -9.75 18.1875 -8.570312 19.28125 -7.65625 C 20.382812 -6.738281 22.171875 -6.28125 24.640625 -6.28125 L 34.984375 -6.40625 C 43.359375 -6.40625 49.117188 -5.484375 52.265625 -3.640625 C 56.765625 -1.097656 59.015625 2.820312 59.015625 8.125 C 59.015625 11.519531 57.976562 14.601562 55.90625 17.375 C 53.832031 20.144531 51.101562 22.1875 47.71875 23.5 C 42.570312 25.457031 36.648438 26.4375 29.953125 26.4375 C 24.929688 26.4375 20.347656 25.945312 16.203125 24.96875 C 12.054688 23.988281 9.085938 22.628906 7.296875 20.890625 C 5.503906 19.160156 4.609375 17.335938 4.609375 15.421875 C 4.609375 13.585938 5.296875 11.941406 6.671875 10.484375 C 8.046875 9.035156 10.609375 7.8125 14.359375 6.8125 C 9.171875 4.257812 6.578125 0.710938 6.578125 -3.828125 C 6.578125 -6.578125 7.632812 -9.25 9.75 -11.84375 C 11.863281 -14.4375 15.210938 -16.6875 19.796875 -18.59375 C 14.453125 -20.550781 10.582031 -23.125 8.1875 -26.3125 C 5.800781 -29.5 4.609375 -33.1875 4.609375 -37.375 C 4.609375 -42.832031 6.835938 -47.566406 11.296875 -51.578125 C 15.765625 -55.585938 21.507812 -57.59375 28.53125 -57.59375 C 32.226562 -57.59375 36.050781 -56.8125 40 -55.25 Z M 29.65625 -53.875 C 27.34375 -53.875 25.390625 -52.707031 23.796875 -50.375 C 22.203125 -48.039062 21.40625 -43.207031 21.40625 -35.875 C 21.40625 -29.9375 22.191406 -25.859375 23.765625 -23.640625 C 25.335938 -21.429688 27.203125 -20.328125 29.359375 -20.328125 C 31.753906 -20.328125 33.75 -21.421875 35.34375 -23.609375 C 36.9375 -25.804688 37.734375 -30.078125 37.734375 -36.421875 C 37.734375 -43.554688 36.835938 -48.421875 35.046875 -51.015625 C 33.765625 -52.921875 31.96875 -53.875 29.65625 -53.875 Z M 26.125 8.25 C 22.0625 8.25 19.375 8.585938 18.0625 9.265625 C 15.789062 10.503906 14.65625 12.179688 14.65625 14.296875 C 14.65625 16.328125 15.828125 18.171875 18.171875 19.828125 C 20.523438 21.484375 24.953125 22.3125 31.453125 22.3125 C 36.992188 22.3125 41.347656 21.570312 44.515625 20.09375 C 47.691406 18.613281 49.28125 16.539062 49.28125 13.875 C 49.28125 12.875 48.976562 12.035156 48.375 11.359375 C 47.300781 10.160156 45.675781 9.34375 43.5 8.90625 C 41.332031 8.46875 35.539062 8.25 26.125 8.25 Z M 26.125 8.25 "/></g></g></g><g fill="#000000" fill-opacity="1"><g transform="translate(252.361302, 109.512175)"><g><path d="M 34.984375 -8.25 C 28.160156 -2.226562 22.039062 0.78125 16.625 0.78125 C 13.4375 0.78125 10.785156 -0.265625 8.671875 -2.359375 C 6.554688 -4.453125 5.5 -7.070312 5.5 -10.21875 C 5.5 -14.488281 7.332031 -18.328125 11 -21.734375 C 14.664062 -25.140625 22.660156 -29.675781 34.984375 -35.34375 L 34.984375 -40.96875 C 34.984375 -45.1875 34.753906 -47.84375 34.296875 -48.9375 C 33.835938 -50.039062 32.96875 -51 31.6875 -51.8125 C 30.414062 -52.632812 28.984375 -53.046875 27.390625 -53.046875 C 24.796875 -53.046875 22.660156 -52.46875 20.984375 -51.3125 C 19.953125 -50.59375 19.4375 -49.753906 19.4375 -48.796875 C 19.4375 -47.960938 19.992188 -46.925781 21.109375 -45.6875 C 22.617188 -43.96875 23.375 -42.3125 23.375 -40.71875 C 23.375 -38.769531 22.644531 -37.109375 21.1875 -35.734375 C 19.738281 -34.359375 17.835938 -33.671875 15.484375 -33.671875 C 12.972656 -33.671875 10.867188 -34.425781 9.171875 -35.9375 C 7.484375 -37.457031 6.640625 -39.234375 6.640625 -41.265625 C 6.640625 -44.128906 7.773438 -46.867188 10.046875 -49.484375 C 12.316406 -52.097656 15.484375 -54.101562 19.546875 -55.5 C 23.617188 -56.894531 27.847656 -57.59375 32.234375 -57.59375 C 37.535156 -57.59375 41.726562 -56.460938 44.8125 -54.203125 C 47.90625 -51.953125 49.910156 -49.507812 50.828125 -46.875 C 51.390625 -45.207031 51.671875 -41.363281 51.671875 -35.34375 L 51.671875 -13.640625 C 51.671875 -11.085938 51.769531 -9.476562 51.96875 -8.8125 C 52.164062 -8.15625 52.460938 -7.664062 52.859375 -7.34375 C 53.253906 -7.03125 53.710938 -6.875 54.234375 -6.875 C 55.273438 -6.875 56.332031 -7.613281 57.40625 -9.09375 L 59.203125 -7.65625 C 57.210938 -4.707031 55.148438 -2.5625 53.015625 -1.21875 C 50.878906 0.113281 48.457031 0.78125 45.75 0.78125 C 42.5625 0.78125 40.066406 0.0351562 38.265625 -1.453125 C 36.472656 -2.953125 35.378906 -5.21875 34.984375 -8.25 Z M 34.984375 -12.625 L 34.984375 -31.328125 C 30.160156 -28.503906 26.570312 -25.476562 24.21875 -22.25 C 22.664062 -20.09375 21.890625 -17.921875 21.890625 -15.734375 C 21.890625 -13.890625 22.546875 -12.273438 23.859375 -10.890625 C 24.859375 -9.804688 26.253906 -9.265625 28.046875 -9.265625 C 30.035156 -9.265625 32.347656 -10.382812 34.984375 -12.625 Z M 34.984375 -12.625 "/></g></g></g><g fill="#000000" fill-opacity="1"><g transform="translate(313.593216, 109.512175)"><g><path d="M 39.46875 -57.46875 L 40.359375 -38.390625 L 38.328125 -38.390625 C 35.898438 -44.046875 33.378906 -47.910156 30.765625 -49.984375 C 28.148438 -52.066406 25.550781 -53.109375 22.96875 -53.109375 C 21.332031 -53.109375 19.9375 -52.554688 18.78125 -51.453125 C 17.625 -50.359375 17.046875 -49.09375 17.046875 -47.65625 C 17.046875 -46.582031 17.441406 -45.546875 18.234375 -44.546875 C 19.515625 -42.910156 23.082031 -40.109375 28.9375 -36.140625 C 34.800781 -32.179688 38.660156 -28.816406 40.515625 -26.046875 C 42.367188 -23.273438 43.296875 -20.175781 43.296875 -16.75 C 43.296875 -13.632812 42.515625 -10.582031 40.953125 -7.59375 C 39.398438 -4.601562 37.207031 -2.3125 34.375 -0.71875 C 31.550781 0.875 28.425781 1.671875 25 1.671875 C 22.320312 1.671875 18.753906 0.832031 14.296875 -0.84375 C 13.097656 -1.28125 12.28125 -1.5 11.84375 -1.5 C 10.519531 -1.5 9.421875 -0.5 8.546875 1.5 L 6.578125 1.5 L 5.625 -18.59375 L 7.65625 -18.59375 C 9.445312 -13.332031 11.90625 -9.382812 15.03125 -6.75 C 18.164062 -4.125 21.128906 -2.8125 23.921875 -2.8125 C 25.835938 -2.8125 27.398438 -3.398438 28.609375 -4.578125 C 29.828125 -5.753906 30.4375 -7.175781 30.4375 -8.84375 C 30.4375 -10.757812 29.835938 -12.414062 28.640625 -13.8125 C 27.441406 -15.207031 24.769531 -17.320312 20.625 -20.15625 C 14.53125 -24.375 10.585938 -27.601562 8.796875 -29.84375 C 6.160156 -33.113281 4.84375 -36.71875 4.84375 -40.65625 C 4.84375 -44.96875 6.328125 -48.867188 9.296875 -52.359375 C 12.265625 -55.847656 16.5625 -57.59375 22.1875 -57.59375 C 25.21875 -57.59375 28.144531 -56.851562 30.96875 -55.375 C 32.050781 -54.78125 32.929688 -54.484375 33.609375 -54.484375 C 34.328125 -54.484375 34.90625 -54.628906 35.34375 -54.921875 C 35.78125 -55.222656 36.476562 -56.070312 37.4375 -57.46875 Z M 39.46875 -57.46875 "/></g></g></g></g></g></svg>